<svg id="Layer_1" data-name="Layer 1" xmlns="http://www.w3.org/2000/svg" viewBox="0 0 1197.96 958.22"><defs><style>.cls-1{fill:#fff;}</style></defs><path class="cls-1" d="M638.26,543.2c-21.67,55.73-54.21,81-102.19,79.86-44.48-1.1-78.45-29.28-94.86-79.13H-60.74c-20.9,54.8-53.87,80.36-101.95,79.13-44.45-1.14-78.33-29.25-95-79.86H-392.94c-18.9,0-25.85-6.65-25.89-25.25,0-146-.3-291.91,0-437.88.24-76.82,59.36-135.45,136.42-135.65,135.16-.33,270.31,0,405.47,0H140v-52.14c0-18.47,2.46-22.06,19.27-28.78,4.62-55.13,23.12-79,61.05-78.76s56.2,24.62,60.06,79.16c16.11,3.06,20,14.27,19.47,29.35-.67,16.63,0,33.27,0,51.17h96.49q55-.41,81,48.08c43.65,81.19,87.54,162.3,131,243.59a24.16,24.16,0,0,0,17.53,13.58c35.14,8.28,70.07,17.5,105,26.61,30.75,8,47.88,29.78,47.95,61.39q.2,90.48,0,180.91c0,17.83-7.09,24.79-25,24.82C715.22,543.27,676.59,543.2,638.26,543.2Zm-912.18-200C-362.53,263.91-353,145.32-289,79.34c65.68-67.68,173-74.1,244.29-13.91C-7,97.21,15,137.84,19.38,186.81c5.45,61.92-17.17,113.46-64.12,155.82H59.64V-15.79H-278.71c-59.9,0-100.16,40.2-100.22,100.12V343.2Zm654.51-59.49V502.81h60.69c10-37.1,31.74-63.22,68.61-74.67s69.41-2.06,98.52,22.4a38.18,38.18,0,0,0,5.16-6.26c9-17.3,23.29-22.26,42.32-21.23,27.25,1.47,54.63.37,82.35.37V383h-38.5V343.46h38.63c1.2-19.2-3.16-25.25-20.33-29.64-12-3.06-24.12-6.19-36.2-9.19-28.21-7-56.23-18.8-84.68-20C525.39,281.71,453.39,283.74,380.59,283.74Zm-41.72-20.57V-14.75h-238V263.17Zm.33,121.19h-238V502.61h238ZM-159.06,64.07c-76.2-.3-139.45,62-140,137.85A139.74,139.74,0,0,0-161.21,343.55,139.74,139.74,0,0,0-19.58,205.71,139.74,139.74,0,0,0-157.41,64.08ZM565,243.21c-25.39-45.68-49.91-89.84-74.76-133.92-1.63-2.9-7.26-5-11.05-5.06-24.52-.47-49-.23-73.57-.23H380.39V243.21ZM59.67,384.36h-437.6v38.43H59.67ZM339.16,304.5H101.23v38.4h238ZM-159.7,583.06A59.89,59.89,0,0,0-99.38,523.6a59.9,59.9,0,0,0-59.47-60.32,59.9,59.9,0,0,0-60.31,59,60.12,60.12,0,0,0,59.46,60.79ZM539.6,463.44a60.56,60.56,0,1,0,.51,0ZM380.26,63.34h89.83L445.44,17.52c-15.94-29.61-31.31-37.2-65.25-31.94ZM-241.58,464.08H-378v38.83h119.48C-252.89,490-247.47,477.55-241.58,464.08Zm164.37,0c5.79,13.31,11.38,25.92,16.83,38.43H59.24V463.94Zm715.66,39.33H738V463.48h-74.4c-23-.13-34.37,17.43-25.19,39.79ZM258.94-56.21V-95H180.75v38.83Zm-19-79.86c-.83-14.14,4.56-29.38-11-36.43a24.76,24.76,0,0,0-20.46,1.6c-12.87,8.58-7.88,22.42-7.75,34.83Z" transform="translate(418.96 335.12)"/><path class="cls-1" d="M239.84-294.88c0,6.66.4,13.31,0,20a20,20,0,0,1-20.23,19.47,19.46,19.46,0,0,1-19.29-19.07c-.6-13.67-.6-27.45,0-41.15a19.47,19.47,0,0,1,19.48-19.45h.68a19.72,19.72,0,0,1,19.36,19C240.24-309,239.84-301.93,239.84-294.88Z" transform="translate(418.96 335.12)"/><path class="cls-1" d="M70.59-250.33A17.27,17.27,0,0,1,88-253.92a29.29,29.29,0,0,1,5,2.1c10.55,5.75,21,11.71,31.24,18,11.55,7.12,14.88,18.53,8.86,28.55s-16.84,12.34-28.25,6.15S82.33-211.7,71.48-218.45c-8.41-5.19-12.27-13.81-8.25-22.49A31.41,31.41,0,0,1,70.59-250.33Z" transform="translate(418.96 335.12)"/><path class="cls-1" d="M333.67-197.86a16.63,16.63,0,0,1-18.93-.66c-4.22-3.33-7.68-6.12-8.62-9.68-1.73-6.66.47-17.9,5.29-21.76a234.89,234.89,0,0,1,40.43-24,15.74,15.74,0,0,1,21.43,6c.08.14.16.28.23.42,3.1,6.09,4.79,18.57,1.47,21.27A443.44,443.44,0,0,1,333.67-197.86Z" transform="translate(418.96 335.12)"/><path class="cls-1" d="M518.37,363.26H440.55V324.43h77.82Z" transform="translate(418.96 335.12)"/><path class="cls-1" d="M140.13,123.33c0-19.13-.17-38.23,0-57.36.26-24.69,16.9-41.53,41.45-41.76,25.79-.23,51.58-.3,77.33,0,23.82.3,40.63,17.13,40.79,41.12q.41,58.67,0,117.22c0,24.09-16.83,40.83-40.79,41.13q-39.3.49-78.56,0a39.69,39.69,0,0,1-40.2-39.18c0-.44,0-.88,0-1.31C139.89,163.22,140.13,143.29,140.13,123.33ZM259,183.85V65.07H180.72V183.39c2.56.16,4.56.43,6.65.43Z" transform="translate(418.96 335.12)"/><path class="cls-1" d="M-99.47,144c6.85,0,12.54-.2,18.23,0,13.31.5,21.36,7.62,21.56,20.66.4,26.15.4,52.37,0,78.52-.2,12.48-8,19.77-20.53,20.43-5.75.34-11.58,0-19.26,0,0,6.66.2,12.58,0,18.6-.6,13.31-7.86,21-21,21.23q-38.62.57-77.29,0c-13.78-.16-20.93-8-21.37-22.12V263.57c-6.65,0-12.84.24-18.89,0-12.72-.59-20.67-7.72-20.87-20q-.63-39.93,0-79.85c.2-11.85,7.92-19,20-19.77,6.15-.36,12.34,0,20,0,0-7-.27-13.31,0-19.23.63-12.58,7.85-20.36,20.33-20.56q39.3-.6,78.56,0c13.07.2,20.23,8,20.76,21.46C-99.27,131.28-99.47,137-99.47,144Zm-.64,43c-12-3.33-25.88-3.33-32.67-10.18s-6.49-20.83-9.55-32.85h-36.3c-2.49,36.11-2.49,36.11-40.59,41.23v35.34c12.64,3.52,26.62,3.32,33.27,10.38s6.46,20.86,9.28,31.94h36.6c2.4-35.24,2.4-35.24,39.93-40.23Z" transform="translate(418.96 335.12)"/><path class="cls-1" d="M-159.43,548.09a24.86,24.86,0,0,1-24.75-25,24.86,24.86,0,0,1,25-24.75,24.85,24.85,0,0,1,24.74,25c0,.19,0,.39,0,.59A25.14,25.14,0,0,1-159.43,548.09Z" transform="translate(418.96 335.12)"/><path class="cls-1" d="M564.26,523.14a24.89,24.89,0,1,1-25-24.76h.69A25.16,25.16,0,0,1,564.26,523.14Z" transform="translate(418.96 335.12)"/></svg>