<svg id="iconos" xmlns="http://www.w3.org/2000/svg" viewBox="0 0 1776.87 1544.12"><defs><style>.cls-1{fill:#fff;}</style></defs><path class="cls-1" d="M1748.69,945.75V744.54a39.92,39.92,0,0,0-79.83,0V945.75a39.92,39.92,0,1,0,79.83,0Z" transform="translate(-217.4 -218.92)"/><path class="cls-1" d="M1708.78,1190.4a39.91,39.91,0,0,0-39.92,39.91v457.81a39.92,39.92,0,0,0,79.83,0V1230.31A39.91,39.91,0,0,0,1708.78,1190.4Z" transform="translate(-217.4 -218.92)"/><path class="cls-1" d="M1974.21,709.92,1748.69,580.55V258.83a39.91,39.91,0,0,0-39.91-39.91h-226a39.91,39.91,0,0,0-39.92,39.91v112.8a39.92,39.92,0,0,0,79.83,0V298.74h146.15v236L1148.33,236.18c-.29-.17-.59-.29-.88-.44-.71-.39-1.43-.76-2.16-1.1-.54-.26-1.07-.48-1.62-.7s-1.27-.51-1.91-.75-1.27-.42-1.91-.61-1.16-.34-1.75-.49-1.36-.31-2-.44-1.18-.22-1.77-.31-1.32-.17-2-.24-1.3-.11-2-.14-1.18-.05-1.77-.05-1.48,0-2.22.06c-.5,0-1,.06-1.51.11-.8.08-1.61.18-2.41.29l-1.36.24c-.8.15-1.61.33-2.41.53l-1.39.38c-.75.23-1.49.46-2.23.72-.54.2-1.08.41-1.62.64s-1.25.5-1.87.8-1.3.64-2,1c-.33.18-.67.32-1,.51L282.72,709.92a39.91,39.91,0,1,0,39.72,69.24l806-462.35,806,462.35a39.91,39.91,0,0,0,39.72-69.24Z" transform="translate(-217.4 -218.92)"/><path class="cls-1" d="M1003.49,1477.46a39.92,39.92,0,0,0-44,4.54c-77.87,64.21-151.67,118.87-187.67,145-7.14-5.56-14.32-11.36-21.7-17.32q-6.74-5.45-13.47-10.83c-99.56-79.35-182.13-147.47-261.53-222l-5.87-5.5c-81-76-164.87-154.66-171.52-261.91-7.11-114.82,57.17-222.3,160-267.46,94.83-41.64,207.69-23.47,287.51,46.3a39.9,39.9,0,0,0,52.53,0c79.83-69.77,192.68-87.94,287.5-46.3,66.22,29.1,116.89,82.93,142.67,151.59a39.91,39.91,0,0,0,74.73-28.07c-33.41-89-99.21-158.78-185.29-196.6-112.92-49.6-245.23-34.08-345.87,38.42-100.64-72.5-233-88-345.88-38.42-133.3,58.57-216.71,197.4-207.53,345.48,8.61,138.86,108.47,232.54,196.58,315.19l5.84,5.48c34.09,32,68.66,62.78,104.74,93.65a40.4,40.4,0,0,0-.83,8.13v186.33a39.91,39.91,0,1,0,79.82,0V1594.61c26.41,21.6,53.83,43.66,82.68,66.65q6.55,5.23,13.08,10.53c15.36,12.4,31.25,25.24,48.3,37.07a39.8,39.8,0,0,0,22.59,7.12l1,0a39.94,39.94,0,0,0,23-7.27c1-.72,104.2-73.45,215.41-165.14a39.93,39.93,0,0,0-6.81-66.13Z" transform="translate(-217.4 -218.92)"/><path class="cls-1" d="M1828.39,1080.61H1509.11l-99-75.13a39.91,39.91,0,0,0-55.78,7.5l-255.86,333.17-11.2-28L967.6,1019.78a39.91,39.91,0,0,0-67.71-10.71L747.78,1191.6H487a39.91,39.91,0,1,0,0,79.82H766.48a39.91,39.91,0,0,0,30.66-14.36l121.25-145.5,120,299.46,12,29.82a39.91,39.91,0,0,0,31.6,24.69,38.69,38.69,0,0,0,5.45.37,39.91,39.91,0,0,0,31.65-15.6l274.35-357.23,78.14,59.26a39.93,39.93,0,0,0,24.12,8.11h332.7a39.92,39.92,0,0,0,0-79.83Z" transform="translate(-217.4 -218.92)"/></svg>