<svg id="Layer_1" data-name="Layer 1" xmlns="http://www.w3.org/2000/svg" viewBox="0 0 360.06 335.77"><defs><style>.cls-1{fill:#fff;}</style></defs><path class="cls-1" d="M432.11,485.75c10.37,0,20.34-.11,30.31,0a24,24,0,0,1,1,47.94c-1,0-2,0-3,0H151.75c-12.73,0-22.4-7.11-25-18.36a23.92,23.92,0,0,1,23-29.61c8.75-.14,17.5,0,26.25,0H180v-4.33c0-17-.5-34,.12-51,1.84-51,25.39-89.11,71-111.91,72.38-36.18,160.34,6.49,177.76,85.56a155.17,155.17,0,0,1,3.08,29C432.46,450.41,432.11,467.79,432.11,485.75Zm-12-.15c0-18.91.05-37.51,0-56.11a99.5,99.5,0,0,0-.88-12.32,113.89,113.89,0,0,0-123.87-98.88c-57.58,5.24-102.48,53.66-103.2,111.43-.23,17.87-.05,35.75-.05,53.62,0,.71.11,1.42.18,2.26Zm-114,12.15H153c-1.25,0-2.5-.05-3.74,0a12.09,12.09,0,0,0-11.18,10.36A11.78,11.78,0,0,0,146.18,521a22.75,22.75,0,0,0,6.65.73q153.22,0,306.46,0a33.28,33.28,0,0,0,3.74,0c5.05-.58,8.62-3.21,10.36-8,3-8.15-3.1-15.93-12.41-15.93Q383.52,497.73,306.07,497.75Z" transform="translate(-126.05 -197.99)"/><path class="cls-1" d="M126.35,304.89l6-10.37,62.31,36-6,10.41Z" transform="translate(-126.05 -197.99)"/><path class="cls-1" d="M423.44,340.87l-6-10.37,62.33-36,6,10.37Z" transform="translate(-126.05 -197.99)"/><path class="cls-1" d="M198.85,228.05l10.38-6,36,62.31-10.38,6Z" transform="translate(-126.05 -197.99)"/><path class="cls-1" d="M366.92,284.39c12-20.79,23.9-41.37,36-62.32l10.4,6c-12,20.8-23.89,41.38-36,62.33Z" transform="translate(-126.05 -197.99)"/><path class="cls-1" d="M311.8,269.53H300.26V198H311.8Z" transform="translate(-126.05 -197.99)"/><path class="cls-1" d="M288.07,425.73h-21c-10.92,0-15.06-4.18-15.06-15.23,0-2.75,0-5.49,0-8.24.12-7.48,5-12.45,12.48-12.52,7.71-.07,15.43,0,23.52,0,0-7.68,0-15,0-22.35,0-9,4.68-13.63,13.61-13.66,3.37,0,6.75-.06,10.12,0,7.18.14,12.18,5.14,12.26,12.37.09,7.72,0,15.45,0,23.63h21.87c9.64,0,14.13,4.54,14.15,14.26,0,3,0,6,0,9-.1,7.71-5,12.67-12.67,12.73s-15.21,0-23.34,0v18.41c0,1.87.05,3.75,0,5.62a12,12,0,0,1-11.93,11.95c-4,.12-8,.11-12,0a11.92,11.92,0,0,1-12.05-12.2C288,441.79,288.07,434.05,288.07,425.73ZM264.2,413.45a5.43,5.43,0,0,0,.77.2c7.5,0,15,0,22.5.09s12.47,5,12.58,12.45c.07,5.13,0,10.25,0,15.38v7.95h12V428c0-9.78,4.45-14.27,14.13-14.28h21.6v-12c-7.64,0-15,0-22.37,0-8.46,0-13.31-4.83-13.36-13.19,0-5.13,0-10.25,0-15.38v-7.22H300.44a3.58,3.58,0,0,0-.31.88q0,10.13-.06,20.25c0,10.29-4.34,14.66-14.52,14.67H264.2Z" transform="translate(-126.05 -197.99)"/><path class="cls-1" d="M246.16,363.43c-5.35,6.64-10.91,12.61-15.41,19.29-10,14.78-14.64,31.33-14.71,49.15,0,9.83,0,19.67,0,29.69H204.57c-.15-.2-.43-.39-.42-.58.16-19.81-1.83-39.75,4.38-59.14a103.19,103.19,0,0,1,30.28-46.71Z" transform="translate(-126.05 -197.99)"/><path class="cls-1" d="M249.54,346.69l12.64-7.23,5.2,10.78-11.2,6.41C254,353.45,252,350.35,249.54,346.69Z" transform="translate(-126.05 -197.99)"/></svg>